<svg xmlns="http://www.w3.org/2000/svg" xmlns:xlink="http://www.w3.org/1999/xlink" width="227.045" height="165.972" viewBox="0 0 227.045 165.972"><defs><linearGradient id="a" y1="0.5" x2="1" y2="0.5" gradientUnits="objectBoundingBox"><stop offset="0" stop-color="#c1272d"/><stop offset="0.263" stop-color="#c1272d"/><stop offset="0.473" stop-color="#7d1a6d"/><stop offset="1" stop-color="#28225e"/></linearGradient><linearGradient id="c" x1="-0.32" y1="0.358" x2="1.413" y2="0.741" xlink:href="#a"/><linearGradient id="d" x1="-0.222" y1="0.312" x2="2.708" y2="1.075" xlink:href="#a"/></defs><g transform="translate(-67.031 -116.248)"><g transform="translate(67.031 202.755)"><g transform="translate(0 0.815)"><path d="M100.4,268.809a8.29,8.29,0,0,1-5.3,7.86c4.775,1.456,6.522,6.522,6.522,9.084,0,9.083-6.812,12-15.257,12H67.031V256.988H86.363C94.4,256.988,100.4,260.6,100.4,268.809Zm-25.8,4.542H86.363c4.833,0,6.405-2.038,6.405-4.367,0-1.864-1.514-5.008-6.405-5.008H74.6Zm0,17.235H86.363c3.145,0,7.628-1.047,7.628-4.89,0-3.669-4.483-5.59-7.628-5.59H74.6Z" transform="translate(-67.031 -256.988)" fill="#4d4d4d"/></g><g transform="translate(40.646 0.815)"><path d="M132.542,297.749V256.988h7.628v40.761Z" transform="translate(-132.542 -256.988)" fill="#4d4d4d"/></g><g transform="translate(51.885 0.815)"><path d="M183.789,290.062H162.476l-3.493,7.687h-8.326l18.284-40.761h8.385l18.284,40.761h-8.385Zm-10.656-24.515-7.57,17.353H180.7Z" transform="translate(-150.656 -256.988)" fill="#4d4d4d"/></g><g transform="translate(99.577 0.815)"><path d="M260.656,290.062H239.343l-3.493,7.687h-8.326l18.283-40.761h8.385l18.284,40.761H264.09ZM250,265.548,242.43,282.9h15.139Z" transform="translate(-227.523 -256.988)" fill="#4d4d4d"/></g><g transform="translate(144.997)"><path d="M337.822,292.127a21.487,21.487,0,0,1-15.489,6.056c-15.14,0-21.545-10.423-21.6-21.021-.058-10.656,6.871-21.486,21.6-21.486a21.031,21.031,0,0,1,14.965,6.231l-5.124,4.949a14,14,0,0,0-9.841-3.843c-9.841,0-14.092,7.337-14.033,14.149.058,6.755,3.96,13.8,14.033,13.8a15.007,15.007,0,0,0,10.249-4.134Z" transform="translate(-300.728 -255.675)" fill="#4d4d4d"/></g><g transform="translate(185.176)"><path d="M407.355,277.1c-.117,10.54-6.58,21.079-20.9,21.079s-20.963-10.306-20.963-21.021,6.871-21.486,20.963-21.486C400.483,255.675,407.471,266.447,407.355,277.1Zm-34.3.174c.174,6.7,3.784,13.859,13.393,13.859s13.218-7.221,13.335-13.917c.117-6.871-3.727-14.558-13.335-14.558S372.883,270.408,373.057,277.278Z" transform="translate(-365.487 -255.675)" fill="#4d4d4d"/></g><g transform="translate(70.779 50.191)"><path d="M208.367,365.8h-4.2v-22.76h-.086l-8.915,11.316H194.4l-9-11.316h-.043V365.8h-4.243V336.57h3.986l9.708,12,9.665-12h3.9Z" transform="translate(-181.108 -336.57)" fill="#4d4d4d"/></g><g transform="translate(108.625 50.234)"><path d="M258.694,340.324H246.307v8.959h11.958v3.686H246.307v9.086H259.08v3.772H242.107V336.639h16.587Z" transform="translate(-242.107 -336.639)" fill="#4d4d4d"/></g><g transform="translate(134.385 50.234)"><path d="M293.484,336.639q1.885,0,3.042.085a17.713,17.713,0,0,1,2.358.342,14.306,14.306,0,0,1,3.986,1.327,13.47,13.47,0,0,1,3.172,2.247,13.934,13.934,0,0,1,2.4,3.018,14.881,14.881,0,0,1,2.058,7.574,14.341,14.341,0,0,1-2.723,8.432,14.527,14.527,0,0,1-3.128,3.145,14.958,14.958,0,0,1-4.05,2.118q-.859.3-1.543.471a13.227,13.227,0,0,1-1.5.279q-.814.107-1.908.15t-2.765.042l-9.258-.042V336.639Zm-5.7,25.417h5.4q1.07,0,1.8-.021t1.328-.086c.4-.042.778-.1,1.137-.171s.778-.178,1.264-.321a8.989,8.989,0,0,0,3.043-1.414,10.27,10.27,0,0,0,2.357-2.358,10.732,10.732,0,0,0,1.521-3.086,11.979,11.979,0,0,0,.536-3.6,10.674,10.674,0,0,0-1.586-5.788,9.848,9.848,0,0,0-4.5-3.814,11.842,11.842,0,0,0-1.394-.557,8.4,8.4,0,0,0-1.436-.321q-.772-.107-1.757-.151t-2.443-.043h-5.272Z" transform="translate(-283.625 -336.639)" fill="#4d4d4d"/></g></g><g transform="translate(169.996 172.636)"><line x1="1.429" fill="none"/></g><g transform="translate(244.255 267.067)"><rect width="49.821" height="3.882" fill="url(#a)"/></g><g transform="translate(67.031 267.067)"><rect width="49.821" height="3.882" transform="translate(0)" fill="url(#a)"/></g><g transform="translate(145.766 116.248)"><path d="M259.61,149.279c6.352-2.834,8.894-7.916,8.894-13.193,0-13.781-10.065-19.838-23.55-19.838H212.506v11.727h32.448c8.208,0,10.747,5.277,10.747,8.405,0,3.909-2.637,7.33-10.747,7.33h-1.346v11.334h1.346c5.277,0,12.8,3.226,12.8,9.382,0,6.451-7.523,8.209-12.8,8.209H212.506v12.019h32.448c14.167,0,25.6-4.884,25.6-20.13C270.556,160.226,267.625,151.722,259.61,149.279Z" transform="translate(-200.982 -116.248)" fill="url(#c)"/><path d="M228.269,153.611v11.31H216.753v11.512H205.447V164.921H193.932v-11.31h11.515V142.1h11.306v11.512Z" transform="translate(-193.932 -126.06)" fill="url(#d)"/></g></g></svg>